<mxfile host="app.diagrams.net" modified="2022-11-01T10:05:34.748Z" agent="5.0 (Windows NT 10.0; Win64; x64) AppleWebKit/537.36 (KHTML, like Gecko) Chrome/106.0.0.0 Safari/537.36" etag="FDZwd1BgP56ZSrMW9ZiV" version="20.4.1" type="github">
  <diagram id="C5RBs43oDa-KdzZeNtuy" name="Page-1">
    <mxGraphModel dx="1695" dy="426" grid="1" gridSize="10" guides="1" tooltips="1" connect="1" arrows="1" fold="1" page="1" pageScale="1" pageWidth="827" pageHeight="1169" math="0" shadow="0">
      <root>
        <mxCell id="WIyWlLk6GJQsqaUBKTNV-0" />
        <mxCell id="WIyWlLk6GJQsqaUBKTNV-1" parent="WIyWlLk6GJQsqaUBKTNV-0" />
        <mxCell id="t5AfuCf_rbfrLG7oyLbx-0" value="HostMobile-HotelList " style="swimlane;startSize=23;" vertex="1" parent="WIyWlLk6GJQsqaUBKTNV-1">
          <mxGeometry x="-100" y="100" width="280" height="690" as="geometry" />
        </mxCell>
        <mxCell id="t5AfuCf_rbfrLG7oyLbx-8" style="edgeStyle=orthogonalEdgeStyle;rounded=0;orthogonalLoop=1;jettySize=auto;html=1;exitX=1;exitY=0.5;exitDx=0;exitDy=0;exitPerimeter=0;entryX=0;entryY=0.5;entryDx=0;entryDy=0;" edge="1" parent="t5AfuCf_rbfrLG7oyLbx-0" source="t5AfuCf_rbfrLG7oyLbx-6" target="t5AfuCf_rbfrLG7oyLbx-7">
          <mxGeometry relative="1" as="geometry" />
        </mxCell>
        <mxCell id="t5AfuCf_rbfrLG7oyLbx-6" value="START" style="strokeWidth=2;html=1;shape=mxgraph.flowchart.start_2;whiteSpace=wrap;" vertex="1" parent="t5AfuCf_rbfrLG7oyLbx-0">
          <mxGeometry x="20" y="50" width="50" height="50" as="geometry" />
        </mxCell>
        <mxCell id="t5AfuCf_rbfrLG7oyLbx-7" value="Request&lt;br&gt;1.PatronId&lt;br&gt;2.HotelCode&lt;br&gt;3.StartDate&lt;br&gt;4.EndDate" style="rounded=1;whiteSpace=wrap;html=1;absoluteArcSize=1;arcSize=14;strokeWidth=2;" vertex="1" parent="t5AfuCf_rbfrLG7oyLbx-0">
          <mxGeometry x="110" y="35" width="100" height="80" as="geometry" />
        </mxCell>
        <mxCell id="t5AfuCf_rbfrLG7oyLbx-60" value="END" style="strokeWidth=2;html=1;shape=mxgraph.flowchart.start_2;whiteSpace=wrap;" vertex="1" parent="t5AfuCf_rbfrLG7oyLbx-0">
          <mxGeometry x="20" y="622" width="50" height="50" as="geometry" />
        </mxCell>
        <mxCell id="t5AfuCf_rbfrLG7oyLbx-1" value="CRB-CheckRoomAvailability" style="swimlane;startSize=23;" vertex="1" parent="WIyWlLk6GJQsqaUBKTNV-1">
          <mxGeometry x="200" y="100" width="590" height="690" as="geometry" />
        </mxCell>
        <mxCell id="t5AfuCf_rbfrLG7oyLbx-65" value="" style="rounded=0;whiteSpace=wrap;html=1;fillColor=#dae8fc;strokeColor=#6c8ebf;strokeWidth=2;dashed=1;" vertex="1" parent="t5AfuCf_rbfrLG7oyLbx-1">
          <mxGeometry x="143" y="280" width="130" height="330" as="geometry" />
        </mxCell>
        <mxCell id="t5AfuCf_rbfrLG7oyLbx-13" value="Y" style="edgeStyle=orthogonalEdgeStyle;rounded=0;orthogonalLoop=1;jettySize=auto;html=1;exitX=0.5;exitY=1;exitDx=0;exitDy=0;exitPerimeter=0;entryX=0.5;entryY=0;entryDx=0;entryDy=0;" edge="1" parent="t5AfuCf_rbfrLG7oyLbx-1" source="t5AfuCf_rbfrLG7oyLbx-9" target="t5AfuCf_rbfrLG7oyLbx-12">
          <mxGeometry relative="1" as="geometry" />
        </mxCell>
        <mxCell id="t5AfuCf_rbfrLG7oyLbx-15" value="N" style="edgeStyle=orthogonalEdgeStyle;rounded=0;orthogonalLoop=1;jettySize=auto;html=1;exitX=1;exitY=0.5;exitDx=0;exitDy=0;exitPerimeter=0;" edge="1" parent="t5AfuCf_rbfrLG7oyLbx-1" source="t5AfuCf_rbfrLG7oyLbx-9" target="t5AfuCf_rbfrLG7oyLbx-14">
          <mxGeometry relative="1" as="geometry">
            <Array as="points">
              <mxPoint x="160" y="75" />
              <mxPoint x="160" y="75" />
            </Array>
          </mxGeometry>
        </mxCell>
        <mxCell id="t5AfuCf_rbfrLG7oyLbx-9" value="HotelCode is Empty?" style="strokeWidth=2;html=1;shape=mxgraph.flowchart.decision;whiteSpace=wrap;" vertex="1" parent="t5AfuCf_rbfrLG7oyLbx-1">
          <mxGeometry x="20" y="45" width="100" height="60" as="geometry" />
        </mxCell>
        <mxCell id="t5AfuCf_rbfrLG7oyLbx-17" style="edgeStyle=orthogonalEdgeStyle;rounded=0;orthogonalLoop=1;jettySize=auto;html=1;exitX=1;exitY=0.5;exitDx=0;exitDy=0;" edge="1" parent="t5AfuCf_rbfrLG7oyLbx-1" source="t5AfuCf_rbfrLG7oyLbx-12" target="t5AfuCf_rbfrLG7oyLbx-16">
          <mxGeometry relative="1" as="geometry" />
        </mxCell>
        <mxCell id="t5AfuCf_rbfrLG7oyLbx-12" value="Get current hotel data from CRB DB" style="rounded=1;whiteSpace=wrap;html=1;absoluteArcSize=1;arcSize=14;strokeWidth=2;" vertex="1" parent="t5AfuCf_rbfrLG7oyLbx-1">
          <mxGeometry x="20" y="138.75" width="100" height="50" as="geometry" />
        </mxCell>
        <mxCell id="t5AfuCf_rbfrLG7oyLbx-18" style="edgeStyle=orthogonalEdgeStyle;rounded=0;orthogonalLoop=1;jettySize=auto;html=1;exitX=0.5;exitY=1;exitDx=0;exitDy=0;entryX=0.5;entryY=0;entryDx=0;entryDy=0;" edge="1" parent="t5AfuCf_rbfrLG7oyLbx-1" source="t5AfuCf_rbfrLG7oyLbx-14" target="t5AfuCf_rbfrLG7oyLbx-16">
          <mxGeometry relative="1" as="geometry" />
        </mxCell>
        <mxCell id="t5AfuCf_rbfrLG7oyLbx-14" value="Get all hotels data from CRB DB" style="rounded=1;whiteSpace=wrap;html=1;absoluteArcSize=1;arcSize=14;strokeWidth=2;" vertex="1" parent="t5AfuCf_rbfrLG7oyLbx-1">
          <mxGeometry x="160" y="50" width="100" height="50" as="geometry" />
        </mxCell>
        <mxCell id="t5AfuCf_rbfrLG7oyLbx-23" style="edgeStyle=orthogonalEdgeStyle;rounded=0;orthogonalLoop=1;jettySize=auto;html=1;exitX=0.5;exitY=1;exitDx=0;exitDy=0;" edge="1" parent="t5AfuCf_rbfrLG7oyLbx-1" source="t5AfuCf_rbfrLG7oyLbx-16" target="t5AfuCf_rbfrLG7oyLbx-19">
          <mxGeometry relative="1" as="geometry" />
        </mxCell>
        <mxCell id="t5AfuCf_rbfrLG7oyLbx-16" value="Assemble CRB request paramters" style="rounded=1;whiteSpace=wrap;html=1;absoluteArcSize=1;arcSize=14;strokeWidth=2;" vertex="1" parent="t5AfuCf_rbfrLG7oyLbx-1">
          <mxGeometry x="160" y="138.75" width="97.5" height="51.25" as="geometry" />
        </mxCell>
        <mxCell id="t5AfuCf_rbfrLG7oyLbx-57" style="edgeStyle=orthogonalEdgeStyle;rounded=0;orthogonalLoop=1;jettySize=auto;html=1;exitX=0.5;exitY=1;exitDx=0;exitDy=0;entryX=0.5;entryY=0;entryDx=0;entryDy=0;" edge="1" parent="t5AfuCf_rbfrLG7oyLbx-1" source="t5AfuCf_rbfrLG7oyLbx-19" target="t5AfuCf_rbfrLG7oyLbx-51">
          <mxGeometry relative="1" as="geometry" />
        </mxCell>
        <mxCell id="t5AfuCf_rbfrLG7oyLbx-19" value="GetRoomAvailability" style="rounded=1;whiteSpace=wrap;html=1;absoluteArcSize=1;arcSize=14;strokeWidth=2;" vertex="1" parent="t5AfuCf_rbfrLG7oyLbx-1">
          <mxGeometry x="148" y="230" width="120" height="40" as="geometry" />
        </mxCell>
        <mxCell id="t5AfuCf_rbfrLG7oyLbx-51" value="Rules check from Integration DB" style="rounded=1;whiteSpace=wrap;html=1;absoluteArcSize=1;arcSize=14;strokeWidth=2;" vertex="1" parent="t5AfuCf_rbfrLG7oyLbx-1">
          <mxGeometry x="153" y="300" width="110" height="40" as="geometry" />
        </mxCell>
        <mxCell id="t5AfuCf_rbfrLG7oyLbx-53" value="Get real time inventories from CRB DB" style="rounded=1;whiteSpace=wrap;html=1;absoluteArcSize=1;arcSize=14;strokeWidth=2;" vertex="1" parent="t5AfuCf_rbfrLG7oyLbx-1">
          <mxGeometry x="153" y="370" width="110" height="50" as="geometry" />
        </mxCell>
        <mxCell id="t5AfuCf_rbfrLG7oyLbx-50" style="edgeStyle=orthogonalEdgeStyle;rounded=0;orthogonalLoop=1;jettySize=auto;html=1;exitX=0.5;exitY=1;exitDx=0;exitDy=0;" edge="1" parent="t5AfuCf_rbfrLG7oyLbx-1" source="t5AfuCf_rbfrLG7oyLbx-51" target="t5AfuCf_rbfrLG7oyLbx-53">
          <mxGeometry relative="1" as="geometry" />
        </mxCell>
        <mxCell id="t5AfuCf_rbfrLG7oyLbx-59" style="edgeStyle=orthogonalEdgeStyle;rounded=0;orthogonalLoop=1;jettySize=auto;html=1;exitX=1;exitY=0.5;exitDx=0;exitDy=0;" edge="1" parent="t5AfuCf_rbfrLG7oyLbx-1" source="t5AfuCf_rbfrLG7oyLbx-54" target="t5AfuCf_rbfrLG7oyLbx-58">
          <mxGeometry relative="1" as="geometry" />
        </mxCell>
        <mxCell id="t5AfuCf_rbfrLG7oyLbx-54" value="Get hotel ADT from CRB DB(&lt;font color=&quot;#ff0000&quot;&gt;PatronHP&lt;/font&gt;)" style="rounded=1;whiteSpace=wrap;html=1;absoluteArcSize=1;arcSize=14;strokeWidth=2;" vertex="1" parent="t5AfuCf_rbfrLG7oyLbx-1">
          <mxGeometry x="153" y="551" width="110" height="49" as="geometry" />
        </mxCell>
        <mxCell id="t5AfuCf_rbfrLG7oyLbx-55" style="edgeStyle=orthogonalEdgeStyle;rounded=0;orthogonalLoop=1;jettySize=auto;html=1;exitX=0.5;exitY=1;exitDx=0;exitDy=0;" edge="1" parent="t5AfuCf_rbfrLG7oyLbx-1" source="t5AfuCf_rbfrLG7oyLbx-56" target="t5AfuCf_rbfrLG7oyLbx-54">
          <mxGeometry relative="1" as="geometry" />
        </mxCell>
        <mxCell id="t5AfuCf_rbfrLG7oyLbx-56" value="Generate not exist in real time inventory for room type reason code" style="rounded=1;whiteSpace=wrap;html=1;absoluteArcSize=1;arcSize=14;strokeWidth=2;" vertex="1" parent="t5AfuCf_rbfrLG7oyLbx-1">
          <mxGeometry x="153" y="447" width="110" height="80" as="geometry" />
        </mxCell>
        <mxCell id="t5AfuCf_rbfrLG7oyLbx-52" style="edgeStyle=orthogonalEdgeStyle;rounded=0;orthogonalLoop=1;jettySize=auto;html=1;exitX=0.5;exitY=1;exitDx=0;exitDy=0;" edge="1" parent="t5AfuCf_rbfrLG7oyLbx-1" source="t5AfuCf_rbfrLG7oyLbx-53" target="t5AfuCf_rbfrLG7oyLbx-56">
          <mxGeometry relative="1" as="geometry" />
        </mxCell>
        <mxCell id="t5AfuCf_rbfrLG7oyLbx-69" value="&lt;font color=&quot;#000000&quot;&gt;Y&lt;/font&gt;" style="edgeStyle=orthogonalEdgeStyle;rounded=0;orthogonalLoop=1;jettySize=auto;html=1;exitX=0.5;exitY=1;exitDx=0;exitDy=0;entryX=1;entryY=0.5;entryDx=0;entryDy=0;fontColor=#FF0000;" edge="1" parent="t5AfuCf_rbfrLG7oyLbx-1" source="t5AfuCf_rbfrLG7oyLbx-58" target="t5AfuCf_rbfrLG7oyLbx-61">
          <mxGeometry relative="1" as="geometry" />
        </mxCell>
        <mxCell id="t5AfuCf_rbfrLG7oyLbx-58" value="Hotel ADT is null？" style="rhombus;whiteSpace=wrap;html=1;" vertex="1" parent="t5AfuCf_rbfrLG7oyLbx-1">
          <mxGeometry x="308" y="546" width="110" height="59" as="geometry" />
        </mxCell>
        <mxCell id="t5AfuCf_rbfrLG7oyLbx-61" value="Return No Available Hotel Error Reason Code" style="rounded=1;whiteSpace=wrap;html=1;absoluteArcSize=1;arcSize=14;strokeWidth=2;" vertex="1" parent="t5AfuCf_rbfrLG7oyLbx-1">
          <mxGeometry x="153" y="622" width="110" height="50" as="geometry" />
        </mxCell>
        <mxCell id="t5AfuCf_rbfrLG7oyLbx-66" style="edgeStyle=orthogonalEdgeStyle;rounded=0;orthogonalLoop=1;jettySize=auto;html=1;exitX=0.5;exitY=1;exitDx=0;exitDy=0;" edge="1" parent="t5AfuCf_rbfrLG7oyLbx-1" source="t5AfuCf_rbfrLG7oyLbx-54" target="t5AfuCf_rbfrLG7oyLbx-54">
          <mxGeometry relative="1" as="geometry" />
        </mxCell>
        <mxCell id="t5AfuCf_rbfrLG7oyLbx-78" style="edgeStyle=orthogonalEdgeStyle;rounded=0;orthogonalLoop=1;jettySize=auto;html=1;exitX=0.5;exitY=0;exitDx=0;exitDy=0;entryX=0.5;entryY=1;entryDx=0;entryDy=0;fontColor=#FF0000;" edge="1" parent="t5AfuCf_rbfrLG7oyLbx-1" source="t5AfuCf_rbfrLG7oyLbx-68" target="t5AfuCf_rbfrLG7oyLbx-77">
          <mxGeometry relative="1" as="geometry" />
        </mxCell>
        <mxCell id="t5AfuCf_rbfrLG7oyLbx-68" value="&lt;font color=&quot;#000000&quot;&gt;Compare patronHP with roomHP to generate HP not enough reason code&lt;/font&gt;" style="rounded=1;whiteSpace=wrap;html=1;absoluteArcSize=1;arcSize=14;strokeWidth=2;fontColor=#FF0000;" vertex="1" parent="t5AfuCf_rbfrLG7oyLbx-1">
          <mxGeometry x="310" y="380" width="108" height="78" as="geometry" />
        </mxCell>
        <mxCell id="t5AfuCf_rbfrLG7oyLbx-77" value="&lt;font color=&quot;#000000&quot;&gt;Set hotel required min HP from room types&lt;/font&gt;" style="rounded=1;whiteSpace=wrap;html=1;absoluteArcSize=1;arcSize=14;strokeWidth=2;fontColor=#FF0000;" vertex="1" parent="t5AfuCf_rbfrLG7oyLbx-1">
          <mxGeometry x="309" y="300" width="108" height="50" as="geometry" />
        </mxCell>
        <mxCell id="t5AfuCf_rbfrLG7oyLbx-3" value="Integration DB" style="shape=cylinder3;whiteSpace=wrap;html=1;boundedLbl=1;backgroundOutline=1;size=15;fillColor=#dae8fc;strokeColor=#6c8ebf;" vertex="1" parent="WIyWlLk6GJQsqaUBKTNV-1">
          <mxGeometry x="520" y="960" width="60" height="80" as="geometry" />
        </mxCell>
        <mxCell id="t5AfuCf_rbfrLG7oyLbx-11" style="edgeStyle=orthogonalEdgeStyle;rounded=0;orthogonalLoop=1;jettySize=auto;html=1;exitX=1;exitY=0.5;exitDx=0;exitDy=0;entryX=0;entryY=0.5;entryDx=0;entryDy=0;entryPerimeter=0;" edge="1" parent="WIyWlLk6GJQsqaUBKTNV-1" source="t5AfuCf_rbfrLG7oyLbx-7" target="t5AfuCf_rbfrLG7oyLbx-9">
          <mxGeometry relative="1" as="geometry" />
        </mxCell>
        <mxCell id="t5AfuCf_rbfrLG7oyLbx-2" value="CRB DB" style="shape=cylinder3;whiteSpace=wrap;html=1;boundedLbl=1;backgroundOutline=1;size=15;fillColor=#ffe6cc;strokeColor=#d79b00;" vertex="1" parent="WIyWlLk6GJQsqaUBKTNV-1">
          <mxGeometry x="354" y="950" width="60" height="80" as="geometry" />
        </mxCell>
        <mxCell id="t5AfuCf_rbfrLG7oyLbx-37" value="GetRoomAvailability" style="swimlane;" vertex="1" parent="WIyWlLk6GJQsqaUBKTNV-1">
          <mxGeometry y="950" width="280" height="341" as="geometry" />
        </mxCell>
        <mxCell id="t5AfuCf_rbfrLG7oyLbx-39" style="edgeStyle=orthogonalEdgeStyle;rounded=0;orthogonalLoop=1;jettySize=auto;html=1;exitX=0.5;exitY=1;exitDx=0;exitDy=0;" edge="1" parent="t5AfuCf_rbfrLG7oyLbx-37" source="t5AfuCf_rbfrLG7oyLbx-35" target="t5AfuCf_rbfrLG7oyLbx-36">
          <mxGeometry relative="1" as="geometry" />
        </mxCell>
        <mxCell id="t5AfuCf_rbfrLG7oyLbx-35" value="Rules Check From Integration DB" style="rounded=1;whiteSpace=wrap;html=1;absoluteArcSize=1;arcSize=14;strokeWidth=2;" vertex="1" parent="t5AfuCf_rbfrLG7oyLbx-37">
          <mxGeometry x="20" y="30" width="110" height="40" as="geometry" />
        </mxCell>
        <mxCell id="t5AfuCf_rbfrLG7oyLbx-43" style="edgeStyle=orthogonalEdgeStyle;rounded=0;orthogonalLoop=1;jettySize=auto;html=1;exitX=0.5;exitY=1;exitDx=0;exitDy=0;" edge="1" parent="t5AfuCf_rbfrLG7oyLbx-37" source="t5AfuCf_rbfrLG7oyLbx-36" target="t5AfuCf_rbfrLG7oyLbx-42">
          <mxGeometry relative="1" as="geometry" />
        </mxCell>
        <mxCell id="t5AfuCf_rbfrLG7oyLbx-36" value="Get Real Time Inventories From CRB DB" style="rounded=1;whiteSpace=wrap;html=1;absoluteArcSize=1;arcSize=14;strokeWidth=2;" vertex="1" parent="t5AfuCf_rbfrLG7oyLbx-37">
          <mxGeometry x="20" y="100" width="110" height="50" as="geometry" />
        </mxCell>
        <mxCell id="t5AfuCf_rbfrLG7oyLbx-41" value="Get Hotel ADT From CRB DB" style="rounded=1;whiteSpace=wrap;html=1;absoluteArcSize=1;arcSize=14;strokeWidth=2;" vertex="1" parent="t5AfuCf_rbfrLG7oyLbx-37">
          <mxGeometry x="20" y="281" width="110" height="40" as="geometry" />
        </mxCell>
        <mxCell id="t5AfuCf_rbfrLG7oyLbx-44" style="edgeStyle=orthogonalEdgeStyle;rounded=0;orthogonalLoop=1;jettySize=auto;html=1;exitX=0.5;exitY=1;exitDx=0;exitDy=0;" edge="1" parent="t5AfuCf_rbfrLG7oyLbx-37" source="t5AfuCf_rbfrLG7oyLbx-42" target="t5AfuCf_rbfrLG7oyLbx-41">
          <mxGeometry relative="1" as="geometry" />
        </mxCell>
        <mxCell id="t5AfuCf_rbfrLG7oyLbx-42" value="Generate Not Exist In Real Time Inventory Form Room Type Error Reason Code" style="rounded=1;whiteSpace=wrap;html=1;absoluteArcSize=1;arcSize=14;strokeWidth=2;" vertex="1" parent="t5AfuCf_rbfrLG7oyLbx-37">
          <mxGeometry x="20" y="177" width="110" height="80" as="geometry" />
        </mxCell>
        <mxCell id="t5AfuCf_rbfrLG7oyLbx-45" value="Hotel ADT is null？" style="rhombus;whiteSpace=wrap;html=1;" vertex="1" parent="t5AfuCf_rbfrLG7oyLbx-37">
          <mxGeometry x="150" y="271.5" width="110" height="59" as="geometry" />
        </mxCell>
        <mxCell id="t5AfuCf_rbfrLG7oyLbx-63" style="edgeStyle=orthogonalEdgeStyle;rounded=0;orthogonalLoop=1;jettySize=auto;html=1;exitX=0;exitY=0.5;exitDx=0;exitDy=0;entryX=1;entryY=0.5;entryDx=0;entryDy=0;entryPerimeter=0;" edge="1" parent="WIyWlLk6GJQsqaUBKTNV-1" source="t5AfuCf_rbfrLG7oyLbx-61" target="t5AfuCf_rbfrLG7oyLbx-60">
          <mxGeometry relative="1" as="geometry">
            <mxPoint x="-10" y="735.4705882352941" as="targetPoint" />
          </mxGeometry>
        </mxCell>
        <mxCell id="t5AfuCf_rbfrLG7oyLbx-76" style="edgeStyle=orthogonalEdgeStyle;rounded=0;orthogonalLoop=1;jettySize=auto;html=1;exitX=0.5;exitY=0;exitDx=0;exitDy=0;entryX=0.5;entryY=1;entryDx=0;entryDy=0;fontColor=#FF0000;" edge="1" parent="WIyWlLk6GJQsqaUBKTNV-1" source="t5AfuCf_rbfrLG7oyLbx-20">
          <mxGeometry relative="1" as="geometry">
            <mxPoint x="562" y="557" as="targetPoint" />
          </mxGeometry>
        </mxCell>
        <mxCell id="t5AfuCf_rbfrLG7oyLbx-20" value="Check value metric(&lt;font color=&quot;#ff0000&quot;&gt;RoomHP&lt;/font&gt;)" style="rounded=1;whiteSpace=wrap;html=1;absoluteArcSize=1;arcSize=14;strokeWidth=2;" vertex="1" parent="WIyWlLk6GJQsqaUBKTNV-1">
          <mxGeometry x="495" y="583" width="137" height="40" as="geometry" />
        </mxCell>
        <mxCell id="t5AfuCf_rbfrLG7oyLbx-74" style="edgeStyle=orthogonalEdgeStyle;rounded=0;orthogonalLoop=1;jettySize=auto;html=1;exitX=0.5;exitY=0;exitDx=0;exitDy=0;entryX=0.5;entryY=1;entryDx=0;entryDy=0;fontColor=#000000;" edge="1" parent="WIyWlLk6GJQsqaUBKTNV-1" source="t5AfuCf_rbfrLG7oyLbx-58" target="t5AfuCf_rbfrLG7oyLbx-20">
          <mxGeometry relative="1" as="geometry" />
        </mxCell>
      </root>
    </mxGraphModel>
  </diagram>
</mxfile>
